# xmcd
#
# Track frame offsets:
#	154
#	20337
#	37419
#	57409
#	77423
#	91830
#	110326
#	124196
#	144021
#	165353
#	183553
#	202337
#	224069
#	238411
#
# Disc length: 3455 seconds
#
# Revision: 1
# Processed by: cddbd v1.5.2PL0 Copyright (c) Steve Scherf et al.
# Submitted via: EasyCDDAExtractor 15.3.0.1
#
DISCID=ca0d7d0e
DTITLE=Varios Artistas - Billboard Hot Latin Tracks - The Best Of 1998 - Pop
DYEAR=2001
DGENRE=Latin
TTITLE0=Shakira - Ciega, Sordomuda
TTITLE1=Nek - Laura No Esta
TTITLE2=Ricardo Arjona - Dime Que No
TTITLE3=Cristian Castro - Lloran Las Rosas
TTITLE4=Enrique Iglesias - Esperanza
TTITLE5=Alejandro Fernandez - Si Tu Supieras
TTITLE6=Luis Miguel - Por Debajo De La Mesa
TTITLE7=Andra Bocelli - Vivo Por Ella
TTITLE8=Chayanne - Dejaria Todo
TTITLE9=Carlos Ponce - Rezo
TTITLE10=Alvaro Torres - El Ultimo Romantico
TTITLE11=Marco Antonio Solis - Casas De Carton
TTITLE12=Onda Vaselina - Te Quiero Tanto, Tanto
TTITLE13=MDO - Volveras A Mi
EXTD=
EXTT0=
EXTT1=
EXTT2=
EXTT3=
EXTT4=
EXTT5=
EXTT6=
EXTT7=
EXTT8=
EXTT9=
EXTT10=
EXTT11=
EXTT12=
EXTT13=
PLAYORDER=
